# xmcd CD database file
#
# Track frame offsets:
#	150
#	7807
#	33063
#	67489
#	81975
#	118506
#	144650
#	158700
#	180560
#	197781
#	214703
#	248243
#	272155
#	286415
#	313216
#	336919
#
# Disc length: 4766 seconds
#
# Revision: 0
# Processed by: cddbd v1.5.2PL0 Copyright (c) Steve Scherf et al.
# Submitted via: CDex 1.51
#
DISCID=ee129c10
DTITLE=Various Artist - Black Jazz for Cafe Apres-midi
DYEAR=1900
DGENRE=Jazz
TTITLE0=Kellee Patterson - Be All Your Own
TTITLE1=Walter Bishop, Jr. - Coral Keys
TTITLE2=Henry Franklin - Little Miss Laurie
TTITLE3=Gene Russell - Black Orchid
TTITLE4=Calvin Keys - Gee-Gee
TTITLE5=Doug Carn - Mighty Mighty
TTITLE6=Walter Bishop, Jr.'s 4th Cycle - Blue Bossa
TTITLE7=Gene Russell - You Are The Sunshine Of My Life
TTITLE8=Rudolph Johnson - The Water Bearer
TTITLE9=Doug Carn - Revelation
TTITLE10=Henry Franklin - Soft Spirit
TTITLE11=The Awakening - Brand New Feeling
TTITLE12=Gene Russell - My Cherie Amour
TTITLE13=Calvin Keys - Shawn-Neeq
TTITLE14=Walter Bishop, Jr. - Waltz For Zweetie
TTITLE15=Doug Carn - Naima
EXTD=
EXTT0=
EXTT1=
EXTT2=
EXTT3=
EXTT4=
EXTT5=
EXTT6=
EXTT7=
EXTT8=
EXTT9=
EXTT10=
EXTT11=
EXTT12=
EXTT13=
EXTT14=
EXTT15=
PLAYORDER=
